<svg width="48" height="48" viewBox="0 0 48 48" fill="none" xmlns="http://www.w3.org/2000/svg">
<path d="M34 45.5H14C13.18 45.5 12.5 44.82 12.5 44C12.5 43.18 13.18 42.5 14 42.5H34C34.82 42.5 35.5 43.18 35.5 44C35.5 44.82 34.82 45.5 34 45.5Z" fill="#25A6CF"/>
<path opacity="0.4" d="M36 38H12C7.58 38 4 34.42 4 30V12C4 7.58 7.58 4 12 4H36C40.42 4 44 7.58 44 12V30C44 34.42 40.42 38 36 38Z" fill="#25A6CF"/>
<path d="M34.5201 18.1401H27.1602C26.3402 18.1401 25.6602 17.4601 25.6602 16.6401C25.6602 15.8201 26.3402 15.1401 27.1602 15.1401H34.5201C35.3401 15.1401 36.0201 15.8201 36.0201 16.6401C36.0201 17.4601 35.3601 18.1401 34.5201 18.1401Z" fill="#25A6CF"/>
<path d="M20 18.6401C18.9 18.6401 18 17.7401 18 16.6401C18 15.5401 18.88 14.6401 20 14.6401C21.1 14.6401 22 15.5401 22 16.6401C22 17.7401 21.12 18.6401 20 18.6401Z" fill="#25A6CF"/>
<path d="M13.7002 18.6401C12.6002 18.6401 11.7002 17.7401 11.7002 16.6401C11.7002 15.5401 12.5802 14.6401 13.7002 14.6401H13.7202C14.8202 14.6401 15.7202 15.5401 15.7202 16.6401C15.7202 17.7401 14.8002 18.6401 13.7002 18.6401Z" fill="#25A6CF"/>
<path d="M34.5204 29.72H13.5005C12.6805 29.72 11.9805 29.04 11.9805 28.22C11.9805 27.4 12.6404 26.72 13.4604 26.72H34.5204C35.3404 26.72 36.0204 27.4 36.0204 28.22C36.0204 29.04 35.3604 29.72 34.5204 29.72Z" fill="#25A6CF"/>
</svg>
