<svg width="48" height="48" viewBox="0 0 48 48" fill="none" xmlns="http://www.w3.org/2000/svg">
<path opacity="0.4" d="M25.0004 14.82V44H8.16043C5.84043 44 3.94043 42.14 3.94043 39.86V10.18C3.94043 4.93997 7.86043 2.55997 12.6404 4.89997L21.5004 9.27997C23.4204 10.22 25.0004 12.72 25.0004 14.82Z" fill="#5C8CEE"/>
<path d="M17.94 19.5H11C10.18 19.5 9.5 18.82 9.5 18C9.5 17.18 10.18 16.5 11 16.5H17.94C18.76 16.5 19.44 17.18 19.44 18C19.44 18.82 18.78 19.5 17.94 19.5Z" fill="#5C8CEE"/>
<path d="M17.94 27.5H11C10.18 27.5 9.5 26.82 9.5 26C9.5 25.18 10.18 24.5 11 24.5H17.94C18.76 24.5 19.44 25.18 19.44 26C19.44 26.82 18.78 27.5 17.94 27.5Z" fill="#5C8CEE"/>
<path opacity="0.6" d="M44 30.1V39C44 41.76 41.76 44 39 44H25V20.84L25.94 21.04L34.02 22.84L34.98 23.06L39.06 23.98C40.04 24.18 40.94 24.52 41.72 25.02C41.72 25.04 41.74 25.04 41.74 25.04C41.94 25.18 42.14 25.34 42.32 25.52C43.24 26.44 43.84 27.78 43.98 29.74C43.98 29.86 44 29.98 44 30.1Z" fill="#5C8CEE"/>
<path d="M25 20.84V32.84C25.92 34.06 27.36 34.84 29 34.84C31.78 34.84 34.02 32.6 34.02 29.84V22.86L25.94 21.06L25 20.84Z" fill="#5C8CEE"/>
<path d="M43.9795 29.74C43.8395 27.78 43.2395 26.44 42.3195 25.52C42.1395 25.34 41.9395 25.18 41.7395 25.04C41.7395 25.04 41.7195 25.04 41.7195 25.02C40.9395 24.52 40.0395 24.18 39.0595 23.98L34.9795 23.06L34.0195 22.84V29.84C34.0195 32.58 36.2395 34.84 39.0195 34.84C41.6995 34.84 43.8395 32.74 43.9995 30.12V30.1C43.9995 29.98 43.9795 29.86 43.9795 29.74Z" fill="#5C8CEE"/>
</svg>
