<svg width="48" height="48" viewBox="0 0 48 48" fill="none" xmlns="http://www.w3.org/2000/svg">
<path opacity="0.4" d="M23 42C33.4934 42 42 33.4934 42 23C42 12.5066 33.4934 4 23 4C12.5066 4 4 12.5066 4 23C4 33.4934 12.5066 42 23 42Z" fill="#6158BA"/>
<path d="M42.6001 44.0001C42.2401 44.0001 41.8801 43.8601 41.6201 43.6001L37.9001 39.8801C37.3601 39.3401 37.3601 38.4601 37.9001 37.9001C38.4401 37.3601 39.3201 37.3601 39.8801 37.9001L43.6001 41.6201C44.1401 42.1601 44.1401 43.0401 43.6001 43.6001C43.3201 43.8601 42.9601 44.0001 42.6001 44.0001Z" fill="#6158BA"/>
<path d="M26.5399 17.7799C25.2799 17.3799 23.9399 17.6199 22.9799 18.3599C21.9999 17.6199 20.6999 17.3799 19.4399 17.7799C16.7199 18.6599 15.8599 21.7599 16.6199 24.1199C17.7799 27.7399 21.5999 29.6199 22.9799 29.6199C24.3199 29.6199 28.2199 27.6999 29.3399 24.1199C30.1199 21.7599 29.2599 18.6599 26.5399 17.7799Z" fill="#6158BA"/>
</svg>
