<svg width="48" height="48" viewBox="0 0 48 48" fill="none" xmlns="http://www.w3.org/2000/svg">
<path opacity="0.4" d="M44 15.62V30.32C43.42 30.04 42.78 29.84 42.06 29.72L41.44 29.62L40.92 28.54C39.82 26.3 38.02 25 36 25C33.98 25 32.18 26.3 31.08 28.54L30.54 29.62L29.94 29.72C27.56 30.12 25.84 31.44 25.22 33.32C24.62 35.22 25.24 37.3 26.94 39.02L27.56 39.64L27.5 39.88C27.1 41.66 27.26 43.02 27.64 44H15.62C8.33999 44 4 39.66 4 32.38V15.62C4 8.34 8.33999 4 15.62 4H32.38C39.66 4 44 8.34 44 15.62Z" fill="#27BBA3"/>
<path d="M38.2398 29.8799L38.8798 31.1799C39.1998 31.8199 40.0198 32.4199 40.6998 32.5399L41.5598 32.6799C44.1798 33.1199 44.7798 35.0399 42.9198 36.9199L42.1198 37.7199C41.5798 38.2599 41.2998 39.2999 41.4598 40.0599L41.5598 40.5399C42.2798 43.6999 40.5998 44.9199 37.8598 43.2599L37.2798 42.8999C36.5798 42.4799 35.4198 42.4799 34.7198 42.8999L34.1398 43.2599C31.3798 44.9199 29.7198 43.6999 30.4398 40.5399L30.5398 40.0599C30.6998 39.3199 30.4198 38.2599 29.8798 37.7199L29.0798 36.9199C27.2198 35.0199 27.8198 33.1199 30.4398 32.6799L31.2998 32.5399C31.9998 32.4199 32.7998 31.8199 33.1198 31.1799L33.7598 29.8799C34.9998 27.3799 36.9998 27.3799 38.2398 29.8799Z" fill="#27BBA3"/>
<path fill-rule="evenodd" clip-rule="evenodd" d="M32.2593 15.8346C32.914 16.3421 33.0333 17.2843 32.5258 17.9391L27.8969 23.9105C26.7072 25.4152 24.5135 25.6896 22.9831 24.507L22.9727 24.499L19.3195 21.6243C19.0938 21.4529 18.779 21.4955 18.6076 21.7166C18.6075 21.7169 18.6078 21.7164 18.6076 21.7166L13.8486 27.8954C13.3431 28.5517 12.4012 28.674 11.7449 28.1685C11.0886 27.6629 10.9664 26.7211 11.4719 26.0648L16.2333 19.8829C17.4211 18.3457 19.6236 18.0679 21.1574 19.2532L21.1679 19.2612L24.821 22.1359C25.0491 22.3091 25.3704 22.2645 25.5406 22.0535L30.1548 16.1011C30.6623 15.4464 31.6045 15.327 32.2593 15.8346Z" fill="#27BBA3"/>
</svg>
