<svg width="48" height="48" viewBox="0 0 48 48" fill="none" xmlns="http://www.w3.org/2000/svg">
<path opacity="0.4" d="M14.2198 11.9201L32.2598 5.90007C40.3598 3.20007 44.7598 7.62007 42.0798 15.7201L36.0598 33.7601C32.0198 45.9001 25.3798 45.9001 21.3398 33.7601L19.5598 28.4001L14.1998 26.6201C2.07981 22.6001 2.07981 15.9801 14.2198 11.9201Z" fill="#FF833E"/>
<path d="M24.2402 23.2601L31.8602 15.6201L24.2402 23.2601Z" fill="#FF833E"/>
<path d="M24.2401 24.76C23.8601 24.76 23.4801 24.62 23.1801 24.32C22.6001 23.74 22.6001 22.78 23.1801 22.2L30.7801 14.56C31.3601 13.98 32.3201 13.98 32.9001 14.56C33.4801 15.14 33.4801 16.1 32.9001 16.68L25.3001 24.32C25.0001 24.6 24.6201 24.76 24.2401 24.76Z" fill="#FF833E"/>
</svg>
