<svg width="48" height="48" viewBox="0 0 48 48" fill="none" xmlns="http://www.w3.org/2000/svg">
<path opacity="0.4" d="M42.1603 17.1601V30.84C42.1603 33.08 40.9603 35.1601 39.0203 36.3001L27.1403 43.1601C25.2003 44.2801 22.8003 44.2801 20.8403 43.1601L8.96031 36.3001C7.02031 35.1801 5.82031 33.1 5.82031 30.84V17.1601C5.82031 14.9201 7.02031 12.84 8.96031 11.7L20.8403 4.84C22.7803 3.72 25.1803 3.72 27.1403 4.84L39.0203 11.7C40.9603 12.84 42.1603 14.9001 42.1603 17.1601Z" fill="#5C8CEE"/>
<path d="M23.9998 24C26.5735 24 28.6598 21.9136 28.6598 19.34C28.6598 16.7663 26.5735 14.6801 23.9998 14.6801C21.4262 14.6801 19.3398 16.7663 19.3398 19.34C19.3398 21.9136 21.4262 24 23.9998 24Z" fill="#5C8CEE"/>
<path d="M29.3603 33.3199C30.9803 33.3199 31.9203 31.5201 31.0203 30.1801C29.6603 28.1601 27.0203 26.8 24.0003 26.8C20.9803 26.8 18.3403 28.1601 16.9803 30.1801C16.0803 31.5201 17.0203 33.3199 18.6403 33.3199H29.3603Z" fill="#5C8CEE"/>
</svg>
