<svg width="48" height="48" viewBox="0 0 48 48" fill="none" xmlns="http://www.w3.org/2000/svg">
<path d="M12 26C6.48 26 2 30.46 2 36C2 41.54 6.48 46 12 46C17.52 46 22 41.52 22 36C22 30.48 17.54 26 12 26ZM7.91998 31.92H12C12.76 31.92 13.36 32.54 13.36 33.28C13.36 34.02 12.74 34.64 12 34.64H7.91998C7.15998 34.64 6.56 34.02 6.56 33.28C6.56 32.54 7.15998 31.92 7.91998 31.92ZM16.08 40.08H7.90002C7.14002 40.08 6.53998 39.46 6.53998 38.72C6.53998 37.98 7.16002 37.36 7.90002 37.36H16.08C16.84 37.36 17.44 37.98 17.44 38.72C17.44 39.46 16.84 40.08 16.08 40.08Z" fill="#5C8CEE"/>
<path opacity="0.4" d="M34 6H14C8 6 4 9 4 16V22.28C4 23.74 5.50003 24.66 6.84003 24.08C9.04003 23.12 11.54 22.76 14.16 23.18C19.4 24.04 23.68 28.18 24.74 33.38C25.04 34.9 25.08 36.38 24.88 37.8C24.72 38.98 25.68 40.02 26.86 40.02H34C40 40.02 44 37.02 44 30.02V16.02C44 8.99999 40 6 34 6Z" fill="#5C8CEE"/>
<path d="M23.9996 23.7399C22.3196 23.7399 20.6196 23.2199 19.3196 22.1599L13.0596 17.1599C12.4196 16.6399 12.2996 15.6999 12.8196 15.0599C13.3396 14.4199 14.2795 14.2999 14.9195 14.8199L21.1795 19.8199C22.6995 21.0399 25.2795 21.0399 26.7995 19.8199L33.0596 14.8199C33.6996 14.2999 34.6595 14.3999 35.1595 15.0599C35.6795 15.6999 35.5795 16.6599 34.9195 17.1599L28.6595 22.1599C27.3795 23.2199 25.6796 23.7399 23.9996 23.7399Z" fill="#5C8CEE"/>
</svg>
