<svg xmlns="http://www.w3.org/2000/svg" xmlns:xlink="http://www.w3.org/1999/xlink" width="1600" zoomAndPan="magnify" viewBox="0 0 1200 675.000002" height="900" preserveAspectRatio="xMidYMid meet" version="1.0"><defs><filter x="0%" y="0%" width="100%" height="100%" id="id1"><feColorMatrix values="0 0 0 0 1 0 0 0 0 1 0 0 0 0 1 0 0 0 1 0" color-interpolation-filters="sRGB"/></filter><clipPath id="id2"><path d="M 0.886719 0 L 1199.113281 0 L 1199.113281 674 L 0.886719 674 Z M 0.886719 0 " clip-rule="nonzero"/></clipPath><mask id="id3"><g filter="url(#id1)"><rect x="-120" width="1440" fill="#000000" y="-67.5" height="810.000002" fill-opacity="0.2078"/></g></mask><clipPath id="id4"><path d="M 0.210938 0.523438 L 84.085938 0.523438 L 84.085938 86.644531 L 0.210938 86.644531 Z M 0.210938 0.523438 " clip-rule="nonzero"/></clipPath><clipPath id="id5"><rect x="0" width="86" y="0" height="90"/></clipPath><mask id="id6"><g filter="url(#id1)"><rect x="-120" width="1440" fill="#000000" y="-67.5" height="810.000002" fill-opacity="0.2078"/></g></mask><clipPath id="id7"><path d="M 0.492188 0.761719 L 36.441406 0.761719 L 36.441406 37.457031 L 0.492188 37.457031 Z M 0.492188 0.761719 " clip-rule="nonzero"/></clipPath><clipPath id="id8"><rect x="0" width="39" y="0" height="40"/></clipPath><mask id="id9"><g filter="url(#id1)"><rect x="-120" width="1440" fill="#000000" y="-67.5" height="810.000002" fill-opacity="0.4471"/></g></mask><clipPath id="id10"><path d="M 0.882812 0.164062 L 158.148438 0.164062 L 158.148438 163.421875 L 0.882812 163.421875 Z M 0.882812 0.164062 " clip-rule="nonzero"/></clipPath><clipPath id="id11"><rect x="0" width="159" y="0" height="165"/></clipPath><mask id="id12"><g filter="url(#id1)"><rect x="-120" width="1440" fill="#000000" y="-67.5" height="810.000002" fill-opacity="0.2078"/></g></mask><clipPath id="id13"><path d="M 0.183594 0.308594 L 84.058594 0.308594 L 84.058594 86.429688 L 0.183594 86.429688 Z M 0.183594 0.308594 " clip-rule="nonzero"/></clipPath><clipPath id="id14"><rect x="0" width="86" y="0" height="89"/></clipPath><mask id="id15"><g filter="url(#id1)"><rect x="-120" width="1440" fill="#000000" y="-67.5" height="810.000002" fill-opacity="0.2078"/></g></mask><clipPath id="id16"><path d="M 0.464844 0.546875 L 36.410156 0.546875 L 36.410156 23 L 0.464844 23 Z M 0.464844 0.546875 " clip-rule="nonzero"/></clipPath><clipPath id="id17"><rect x="0" width="39" y="0" height="23"/></clipPath><mask id="id18"><g filter="url(#id1)"><rect x="-120" width="1440" fill="#000000" y="-67.5" height="810.000002" fill-opacity="0.2078"/></g></mask><clipPath id="id19"><path d="M 0.578125 0.523438 L 84.453125 0.523438 L 84.453125 86.644531 L 0.578125 86.644531 Z M 0.578125 0.523438 " clip-rule="nonzero"/></clipPath><clipPath id="id20"><rect x="0" width="86" y="0" height="90"/></clipPath><mask id="id21"><g filter="url(#id1)"><rect x="-120" width="1440" fill="#000000" y="-67.5" height="810.000002" fill-opacity="0.2078"/></g></mask><clipPath id="id22"><path d="M 0.859375 0.761719 L 36.804688 0.761719 L 36.804688 37.457031 L 0.859375 37.457031 Z M 0.859375 0.761719 " clip-rule="nonzero"/></clipPath><clipPath id="id23"><rect x="0" width="39" y="0" height="40"/></clipPath><mask id="id24"><g filter="url(#id1)"><rect x="-120" width="1440" fill="#000000" y="-67.5" height="810.000002" fill-opacity="0.4471"/></g></mask><clipPath id="id25"><path d="M 0.957031 0.335938 L 158.222656 0.335938 L 158.222656 163.59375 L 0.957031 163.59375 Z M 0.957031 0.335938 " clip-rule="nonzero"/></clipPath><clipPath id="id26"><rect x="0" width="159" y="0" height="165"/></clipPath></defs><g clip-path="url(#id2)"><path fill="#ffffff" d="M 0.886719 0 L 1199.113281 0 L 1199.113281 681.492188 L 0.886719 681.492188 Z M 0.886719 0 " fill-opacity="1" fill-rule="nonzero"/><path fill="#ffffff" d="M 0.886719 0 L 1199.113281 0 L 1199.113281 674 L 0.886719 674 Z M 0.886719 0 " fill-opacity="1" fill-rule="nonzero"/><path fill="#ffffff" d="M 0.886719 0 L 1199.113281 0 L 1199.113281 674 L 0.886719 674 Z M 0.886719 0 " fill-opacity="1" fill-rule="nonzero"/><path fill="#ffffff" d="M 0.886719 0 L 1199.113281 0 L 1199.113281 674 L 0.886719 674 Z M 0.886719 0 " fill-opacity="1" fill-rule="nonzero"/></g><g mask="url(#id3)"><g transform="matrix(1, 0, 0, 1, 157, 149)"><g clip-path="url(#id5)"><g clip-path="url(#id4)"><path fill="#c0dceb" d="M 0.210938 0.523438 L 84.085938 0.523438 L 84.085938 86.644531 L 0.210938 86.644531 L 0.210938 0.523438 " fill-opacity="1" fill-rule="nonzero"/></g></g></g></g><g mask="url(#id6)"><g transform="matrix(1, 0, 0, 1, 96, 260)"><g clip-path="url(#id8)"><g clip-path="url(#id7)"><path fill="#c0dceb" d="M 0.492188 0.761719 L 36.441406 0.761719 L 36.441406 37.453125 L 0.492188 37.453125 L 0.492188 0.761719 " fill-opacity="1" fill-rule="nonzero"/></g></g></g></g><g mask="url(#id9)"><g transform="matrix(1, 0, 0, 1, 983, 430)"><g clip-path="url(#id11)"><g clip-path="url(#id10)"><path fill="#c0dceb" d="M 0.886719 0.164062 L 158.148438 0.164062 L 158.148438 163.421875 L 0.886719 163.421875 L 0.886719 0.164062 " fill-opacity="1" fill-rule="nonzero"/></g></g></g></g><g mask="url(#id12)"><g transform="matrix(1, 0, 0, 1, 1105, 540)"><g clip-path="url(#id14)"><g clip-path="url(#id13)"><path fill="#c0dceb" d="M 0.183594 0.308594 L 84.058594 0.308594 L 84.058594 86.429688 L 0.183594 86.429688 L 0.183594 0.308594 " fill-opacity="1" fill-rule="nonzero"/></g></g></g></g><g mask="url(#id15)"><g transform="matrix(1, 0, 0, 1, 1044, 651)"><g clip-path="url(#id17)"><g clip-path="url(#id16)"><path fill="#c0dceb" d="M 0.464844 0.546875 L 36.410156 0.546875 L 36.410156 37.238281 L 0.464844 37.238281 L 0.464844 0.546875 " fill-opacity="1" fill-rule="nonzero"/></g></g></g></g><g mask="url(#id18)"><g transform="matrix(1, 0, 0, 1, 1062, 149)"><g clip-path="url(#id20)"><g clip-path="url(#id19)"><path fill="#c0dceb" d="M 0.578125 0.523438 L 84.453125 0.523438 L 84.453125 86.644531 L 0.578125 86.644531 L 0.578125 0.523438 " fill-opacity="1" fill-rule="nonzero"/></g></g></g></g><g mask="url(#id21)"><g transform="matrix(1, 0, 0, 1, 1001, 260)"><g clip-path="url(#id23)"><g clip-path="url(#id22)"><path fill="#c0dceb" d="M 0.859375 0.761719 L 36.804688 0.761719 L 36.804688 37.453125 L 0.859375 37.453125 L 0.859375 0.761719 " fill-opacity="1" fill-rule="nonzero"/></g></g></g></g><g mask="url(#id24)"><g transform="matrix(1, 0, 0, 1, 35, 29)"><g clip-path="url(#id26)"><g clip-path="url(#id25)"><path fill="#c0dceb" d="M 0.960938 0.335938 L 158.222656 0.335938 L 158.222656 163.59375 L 0.960938 163.59375 L 0.960938 0.335938 " fill-opacity="1" fill-rule="nonzero"/></g></g></g></g></svg>